<svg xmlns="http://www.w3.org/2000/svg" viewBox="0 0 597.46 1289.96"><defs><style>.cls-1{fill:none;stroke:#000;stroke-miterlimit:10;stroke-width:7px;}</style></defs><g id="Layer_2" data-name="Layer 2"><g id="Calves"><path d="M253.34,1089.31c14.77,19.79,19.69,45,18.07,69.3-1.86,27.81-14,53.49-17.21,81.08-1.85,16.13-1.64,32.53-5.41,48.4h2.89c-6.18-26.47-12.22-53.08-15.17-80.14-2.75-25.2-2.8-50.88,2.15-75.82a169,169,0,0,1,13-40c.82-1.74-1.76-3.26-2.59-1.52-10.9,22.86-16,48-17.2,73.18-1.24,26.74,2.06,53.47,7,79.7,2.88,15.2,6.34,30.28,9.86,45.35a1.51,1.51,0,0,0,2.89,0c3.41-14.35,3.64-29.14,5-43.76a167.55,167.55,0,0,1,3.31-21.61c1.59-7.09,3.57-14.08,5.55-21.06,3.73-13.16,7.29-26.35,8.59-40a126.82,126.82,0,0,0-1.76-37,94.06,94.06,0,0,0-16.41-37.66c-1.14-1.53-3.74,0-2.59,1.51Z"/><path d="M251.61,1092.41a19.4,19.4,0,0,1,3.15-1.68l-.36.15.23-.1a1.06,1.06,0,0,0,.51-.27,1.13,1.13,0,0,0,.39-.42,1.59,1.59,0,0,0,.15-1.15,1.53,1.53,0,0,0-.69-.9,1.48,1.48,0,0,0-1.16-.15,22.06,22.06,0,0,0-3.74,1.93,1.64,1.64,0,0,0-.69.9,1.53,1.53,0,0,0,.15,1.15,1.51,1.51,0,0,0,2.06.54Z"/><path d="M335.15,1087.51c-14.92,20-20,45.66-18.51,70.21.84,13.45,3.9,26.49,7.52,39.43,3.92,14,8.1,28,9.75,42.49,1.85,16.32,1.67,32.9,5.49,49a1.51,1.51,0,0,0,2.89,0c6.25-26.74,12.3-53.61,15.29-80.94,2.79-25.63,2.74-51.71-2.35-77.06A172.23,172.23,0,0,0,342,1090.37c-.83-1.74-3.42-.22-2.59,1.52,10.79,22.62,15.77,47.62,16.82,72.56,1.12,26.35-2.13,52.64-7.05,78.48-2.86,15-6.29,30-9.77,44.87h2.89c-3.34-14.09-3.55-28.61-4.85-43a174.87,174.87,0,0,0-3.22-21.49c-1.54-7-3.47-13.93-5.43-20.84-3.7-13.07-7.4-26.18-8.74-39.75a124,124,0,0,1,1.55-36.59A92.14,92.14,0,0,1,337.74,1089c1.16-1.54-1.45-3-2.59-1.51Z"/><path d="M341,1089.53a21.69,21.69,0,0,0-3.74-1.93,1.49,1.49,0,0,0-1.15.15,1.52,1.52,0,0,0-.69.9,1.49,1.49,0,0,0,.15,1.15l.23.31a1.57,1.57,0,0,0,.66.38l.24.1-.36-.15a19.83,19.83,0,0,1,3.15,1.68,1.5,1.5,0,0,0,2-.54,1.53,1.53,0,0,0-.54-2Z"/></g><g id="Quads"><path d="M220.1,673.62c-3.19,21.11-13.93,39.58-24.56,57.72a306.63,306.63,0,0,0-15,27.77,210.75,210.75,0,0,0-11.35,31.8c-6.07,22.16-9.18,45-11.55,67.85-2.51,24.22-5.33,48.82.54,72.78,2.86,11.71,6.45,23.32,10.08,34.82A266.1,266.1,0,0,0,180.62,999c1.22,2.61,2.51,5.2,3.87,7.75a1.52,1.52,0,0,0,2.74-.36q7.11-19.44,15.82-38.24l-2.75-.36c2.27,7,6.34,13.17,10,19.53a58.12,58.12,0,0,1,4.66,9.83,70.9,70.9,0,0,1,2.33,11.27c1,6.21,3.56,12.43,10.07,14.45,5.41,1.69,11.42-.23,15.61-3.83,5.18-4.44,7.72-11.58,9.08-18.06,1.69-8.09,2-16.48,2.14-24.72.38-18.26-1-36.5-2.89-54.65-3.11-29.59-6.92-59.12-10.47-88.66-1.59-13.26-3.18-26.53-4.69-39.8-1.75-15.38-3.72-30.78-4.9-46.21q-2.06-27-4.89-53.93-.69-6.54-1.43-13.08c-.21-1.9-3.21-1.92-3,0Q224.84,706,227,732.17c.75,8.92,1.35,17.84,2.3,26.73q1.22,11.39,2.48,22.77,2.4,21.48,5,42.94,4.5,37.59,9,75.18c2.1,17.68,4.14,35.4,5,53.19.44,8.89.58,17.79.28,26.68-.26,7.86-.6,15.89-2.66,23.53-1.68,6.25-4.75,12.88-10.84,15.87-4.83,2.36-11.14,1.94-14.44-2.71-2.08-2.93-2.66-6.65-3.2-10.12a54.69,54.69,0,0,0-2.47-10.87c-2.46-6.62-6.48-12.45-9.89-18.59A54,54,0,0,1,203.2,967c-.36-1.12-2.17-1.61-2.74-.36q-8.88,19.13-16.13,39l2.75-.35c-11-20.7-17.35-43.57-23.72-66a165.08,165.08,0,0,1-4.21-17.81,122.45,122.45,0,0,1-1.5-18.64c-.12-12.14,1.07-24.26,2.24-36.34,2.21-22.82,5-45.69,10.45-68a225.44,225.44,0,0,1,10.35-32.18,236.58,236.58,0,0,1,14.48-28.37c10.29-17.75,21.5-35.46,26.31-55.66q.93-3.88,1.51-7.85c.29-1.89-2.6-2.7-2.89-.8Z"/><path d="M365,674.37c3.13,20.67,13.45,39,23.87,56.74,5.3,9,10.64,18.07,15.09,27.56a201.86,201.86,0,0,1,11.53,31.52c6.18,22.06,9.37,44.84,11.75,67.59,2.52,24.09,5.53,48.74-.26,72.59-2.79,11.52-6.32,22.93-9.87,34.23a264.87,264.87,0,0,1-12.32,32.85c-1.22,2.62-2.52,5.2-3.87,7.75l2.74.36q-7.24-19.8-16.12-38.95c-.58-1.25-2.38-.77-2.74.35-2.23,6.95-6.37,13-9.94,19.28a62,62,0,0,0-4.42,9.32,55.12,55.12,0,0,0-2.38,10.62c-1,6.17-2.85,13.28-10.1,14.19-5.82.72-11.16-2.77-14.23-7.49-4.07-6.27-5.43-14-6.12-21.32a243.06,243.06,0,0,1-.83-25.46c.22-17.82,1.89-35.58,3.89-53.27,3.13-27.63,6.55-55.23,9.87-82.84,1.55-13,3.1-25.91,4.57-38.87,1.73-15.28,3.61-30.56,4.79-45.89q2-26.33,4.8-52.58.67-6.37,1.39-12.75c.22-1.92-2.78-1.9-3,0q-3,26.91-5.27,53.9c-.75,9-1.41,18-2.37,27q-1.26,11.7-2.56,23.41-2.4,21.41-5,42.79c-3.24,27-6.55,54.09-9.69,81.16-2.12,18.24-4,36.55-4.37,54.93a263.34,263.34,0,0,0,.63,26.8c.59,7.43,1.72,15.06,5.1,21.79,2.73,5.42,7.15,10,13.21,11.35,5.46,1.27,11.21-.36,14.55-5,4.32-6,3.44-14.33,5.82-21.12s6.76-13,10.25-19.34a57,57,0,0,0,4.29-9.77l-2.74.36q8.71,18.78,15.82,38.24a1.52,1.52,0,0,0,2.74.36c11.06-20.84,17.5-43.82,23.93-66.41,3.35-11.8,5.62-23.6,5.88-35.9s-.94-24.75-2.13-37.06c-2.2-22.9-4.91-45.84-10.28-68.24a208.66,208.66,0,0,0-24.51-61.05c-10.44-18.12-22.09-36-27-56.64-.62-2.59-1.12-5.21-1.52-7.85-.28-1.9-3.17-1.09-2.89.8Z"/><path d="M238,695.55a126.09,126.09,0,0,1,34.47,16.24,58.12,58.12,0,0,1,7.3,5.47,12.42,12.42,0,0,1,4.12,8c.37,3.35.34,6.77.46,10.13.13,3.66.24,7.31.35,11q1.21,42.84.17,85.71-.6,24.17-1.9,48.3l2.79-.75c-4.64-10-7.35-20.78-9.42-31.58-2.16-11.21-3.85-22.51-5.7-33.77l-3.25-19.81c-.32-1.9-3.21-1.09-2.9.8q2.93,17.73,5.83,35.45c1.81,11,3.53,22.1,6.5,32.88a113.33,113.33,0,0,0,6.35,17.54c.67,1.45,2.72.6,2.8-.76q2.37-44,2.38-88.16,0-21.93-.6-43.85c-.2-7.24-.29-14.51-.75-21.73a16.27,16.27,0,0,0-2.73-8.87,28.66,28.66,0,0,0-6.49-5.94,128.17,128.17,0,0,0-39-19.2c-1.86-.55-2.65,2.35-.8,2.89Z"/><path d="M268,795.75c-2.39-15.5-4.78-31-7.53-46.45-2.28-12.76-4.82-25.59-10-37.56a69.83,69.83,0,0,0-11.21-18.16c-1.26-1.47-3.37.66-2.12,2.12,8.33,9.64,13,21.7,16.15,33.9,3.5,13.62,5.57,27.63,7.81,41.5,1.36,8.48,2.67,17,4,25.45.29,1.9,3.19,1.09,2.89-.8Z"/><path d="M219.59,674.18l2.46,6.14a1.61,1.61,0,0,0,.69.89,1.49,1.49,0,0,0,1.15.15,1.51,1.51,0,0,0,1.05-1.84l-2.46-6.14a1.67,1.67,0,0,0-.69-.9,1.61,1.61,0,0,0-1.16-.15,1.51,1.51,0,0,0-1,1.85Z"/><path d="M365.24,673.85,363,679.07a1.72,1.72,0,0,0-.15,1.16,1.57,1.57,0,0,0,.69.89,1.47,1.47,0,0,0,1.16.15,1.44,1.44,0,0,0,.89-.69l2.29-5.21a1.67,1.67,0,0,0,.16-1.16,1.57,1.57,0,0,0-.69-.89,1.52,1.52,0,0,0-2.06.53Z"/><path d="M355,692.55a128.55,128.55,0,0,0-35.18,16.54c-4.84,3.26-10.68,6.86-12.34,12.84-.93,3.34-.79,7-.92,10.42q-.19,5.48-.36,10.95-1.34,43.85-.29,87.71.6,24.66,1.93,49.29c.07,1.36,2.12,2.21,2.79.76,4.66-10,7.49-20.77,9.6-31.62,2.21-11.34,3.91-22.8,5.78-34.2l3.3-20c.31-1.89-2.58-2.7-2.89-.8l-5.79,35.21c-1.79,10.88-3.48,21.81-6.36,32.46a109.62,109.62,0,0,1-6.23,17.49l2.8.75q-2.34-43-2.38-86.17,0-21.43.51-42.86.28-10.71.69-21.41c.12-3.2,0-6.64,1.7-9.5,1.47-2.51,3.86-4.34,6.18-6a126,126,0,0,1,38.26-18.9c1.85-.54,1.06-3.44-.8-2.89Z"/><path d="M328.67,796.44C331,781.26,333.35,766.08,336,751c2.25-12.67,4.64-25.53,9.69-37.44a67.23,67.23,0,0,1,10.89-17.93c1.26-1.46-.86-3.59-2.12-2.12-8.49,9.82-13.44,22-16.71,34.42-3.6,13.71-5.68,27.84-7.94,41.81q-2.08,13-4.06,25.94c-.29,1.89,2.6,2.71,2.89.8Z"/></g><g id="Obliques"><path d="M407.17,464.29c-5.95,29.22-12.05,60.61-1.4,89.53,2.52,6.86,5.88,13.37,8.47,20.2a61.42,61.42,0,0,1,3,10.13,53.27,53.27,0,0,1,.78,11.9,137.1,137.1,0,0,1-3,23.62c-1.43,6.86-3.15,13.86-6.84,19.89-6.75,11-21.37,17.11-32.87,9.38-8.84-5.94-11.61-16.74-10.8-26.82a174.22,174.22,0,0,1,3-18.7q2-10.27,4.28-20.49.63-2.8,1.29-5.61c.18-.8.39-1.6.56-2.41.25-1.16-.17-2.13-.25-3.31q-.45-6.2-.89-12.39-.87-12.15-1.73-24.3c-.57-7.93-1.19-15.86-1.7-23.79-.38-6-.53-12.27,1.59-18a19.52,19.52,0,0,1,5-7.39,85.34,85.34,0,0,1,8.68-7.19,79.12,79.12,0,0,1,15.94-9.16,43.87,43.87,0,0,1,6.23-2.1c1.87-.47,1.07-3.36-.8-2.89a58.05,58.05,0,0,0-14.54,6.17,91.81,91.81,0,0,0-17.46,12.89c-10.4,9.74-7.82,25.07-6.91,37.81l3.6,50.33c0,.5,0,1,.1,1.49.05.34.24.69.26,1a14,14,0,0,1-.73,3.12q-.71,3-1.37,6-1.22,5.41-2.33,10.86c-1.35,6.53-2.67,13.08-3.76,19.66-.91,5.51-1.69,11.18-1,16.76A30.84,30.84,0,0,0,367.08,645,25.17,25.17,0,0,0,382,655a25.92,25.92,0,0,0,19.14-3.93c12.58-8.1,15.91-24,18.11-37.78,1.28-8,2.28-16.32,1.62-24.43-.61-7.58-3.2-14.64-6.18-21.57s-6.28-13.91-8.31-21.31A100.82,100.82,0,0,1,403,522.93c-.55-15.62,1.84-31.17,4.78-46.46.72-3.8,1.49-7.59,2.26-11.39.39-1.88-2.5-2.69-2.89-.79Z"/><path d="M177.62,472.41c3.13,15.4,6.22,30.9,7,46.63.72,15.5-1.15,30.84-7.1,45.25-2.9,7-6.37,13.8-8.59,21.07-2.33,7.61-2.57,15.41-1.93,23.3a154,154,0,0,0,3.86,24c1.69,6.95,4.11,13.78,8.61,19.43,8.25,10.34,23.59,14.46,34.86,6.51,9.06-6.39,12.59-17.41,11.91-28.12-.41-6.45-1.75-12.83-3-19.17q-2-10.47-4.33-20.88-.67-3-1.38-6a12.38,12.38,0,0,1-.68-2.89c0-.33.21-.68.26-1,.08-.57.08-1.16.12-1.74l.9-12.64q.9-12.52,1.79-25c.58-8,1.27-16,1.7-24,.33-6.28.19-12.81-2.34-18.67-2.77-6.41-8.83-10.88-14.32-14.88A81.93,81.93,0,0,0,188.42,474a45.15,45.15,0,0,0-6.52-2.23c-1.87-.46-2.67,2.43-.79,2.9a55.5,55.5,0,0,1,14.15,6.06,86.24,86.24,0,0,1,17,12.71c4.49,4.34,6.11,10.35,6.4,16.43.33,7-.54,14.05-1,21l-1.74,24.3-.85,11.9c-.29,4.12-.41,8.3-.88,12.4a7.88,7.88,0,0,0-.22,2.81c.17.81.38,1.61.57,2.41q.71,3,1.38,6.07,1.22,5.44,2.35,10.92c1.29,6.21,2.53,12.44,3.62,18.69,1.8,10.29,2.72,21.38-3.76,30.33a21.91,21.91,0,0,1-14.53,9c-6.46.87-13.15-1.57-18.09-5.7-5.28-4.4-8.41-10.63-10.41-17.1a127.56,127.56,0,0,1-4.54-22.41c-.93-7.71-1.6-15.73,0-23.41,1.47-7.15,4.56-13.81,7.48-20.45a110.24,110.24,0,0,0,7.27-20.94,109,109,0,0,0,2.45-22.13c.21-15.13-2.18-30.17-5-45-.7-3.65-1.44-7.29-2.18-10.93-.38-1.89-3.28-1.09-2.89.8Z"/></g><g id="Biceps"><path d="M115,373.57a149,149,0,0,0-34.71,113.7c.29,2.42.4,5.12,1.33,7.4,1,2.52,3.36,3.79,5.67,5A56.87,56.87,0,0,0,103,505a26.62,26.62,0,0,0,8,.71,7.75,7.75,0,0,0,5.64-4,155.37,155.37,0,0,0,7.79-14.36,239.55,239.55,0,0,0,20.77-62.07,238.5,238.5,0,0,0,3.25-65.38c-.24-2.74-.54-5.48-.88-8.22a1.52,1.52,0,0,0-2.26-1.29,202.94,202.94,0,0,0-29.76,23.65c-1.39,1.34.73,3.46,2.12,2.12A198.32,198.32,0,0,1,146.8,353l-2.25-1.3a235.11,235.11,0,0,1-.65,63.15,237.49,237.49,0,0,1-17.3,60.75q-3.13,7.18-6.75,14.13-1.86,3.58-3.84,7.08c-1.05,1.86-2.17,4.81-4.29,5.68s-5.27.1-7.49-.29a54.81,54.81,0,0,1-7.79-2A52.91,52.91,0,0,1,89,497.16a19.54,19.54,0,0,1-3.29-1.9A5,5,0,0,1,84,492.1a96.39,96.39,0,0,1-1.55-14.88,143.71,143.71,0,0,1,0-14.53,147.13,147.13,0,0,1,30-81.37c1.49-1.92,3-3.79,4.61-5.63,1.25-1.46-.86-3.59-2.12-2.12Z"/><path d="M476.48,375.52a146.24,146.24,0,0,1,34.1,109.17c-.25,2.41-.48,4.87-1,7.24a5,5,0,0,1-1.72,3.16,19.94,19.94,0,0,1-3.29,1.9,55,55,0,0,1-15.7,5.13c-2.18.36-5.33,1.16-7.4,0s-3-3.87-4.05-5.7q-3.85-6.82-7.23-13.89a237.3,237.3,0,0,1-22.05-123.24q.36-3.9.85-7.79l-2.26,1.3A197.8,197.8,0,0,1,475.91,376c1.39,1.33,3.52-.79,2.12-2.13a202.93,202.93,0,0,0-29.75-23.64,1.52,1.52,0,0,0-2.26,1.29,240.13,240.13,0,0,0,19.77,128.6q3.39,7.42,7.28,14.6c1.27,2.35,2.52,4.75,4,7a7.67,7.67,0,0,0,5.54,3.83,26.56,26.56,0,0,0,8-.71,55,55,0,0,0,8.2-2.16,58.73,58.73,0,0,0,7.74-3.32c2.32-1.2,4.56-2.5,5.54-5.05.91-2.35,1-5.14,1.3-7.62s.53-5.09.69-7.64a141.43,141.43,0,0,0,.14-15.13,150.08,150.08,0,0,0-4.4-30.11,148.42,148.42,0,0,0-26.33-54.48c-1.57-2-3.18-4-4.85-5.94-1.26-1.47-3.38.66-2.12,2.12Z"/></g><g id="Anterior_Deltoids" data-name="Anterior Deltoids"><g id="Anterior_Deltoid" data-name="Anterior Deltoid"><path d="M119.3,367.18a212.11,212.11,0,0,1,2.29-37.6c1.69-11.09,4-22.32,8-32.84,3.27-8.68,8-17.24,15.34-23.12,8.77-7,20.19-7.78,31-8.07,11-.29,22.43.54,32.49,5.31,4.65,2.2,9.5,5.15,11.19,10.32,1.5,4.61.5,9.63-1.26,14a44.49,44.49,0,0,1-8.14,12.54,67.13,67.13,0,0,1-24.89,17.75A90.65,90.65,0,0,1,169,330a88.69,88.69,0,0,0-15.75,4.39,73.82,73.82,0,0,0-34,27.53,71.63,71.63,0,0,0-3.69,6.19c-.9,1.71,1.69,3.22,2.59,1.52a70.17,70.17,0,0,1,19.78-23.2,72,72,0,0,1,28.34-12.81c5.92-1.28,11.87-2.3,17.58-4.39a70.08,70.08,0,0,0,14.1-7c8.69-5.66,16.95-13.5,21.71-22.83,2.27-4.45,3.9-9.52,3.58-14.58a17,17,0,0,0-7-12.79c-9.14-6.88-21.4-9-32.57-9.43a138.93,138.93,0,0,0-17.43.52c-5.88.54-11.74,1.62-17.07,4.27-8.67,4.32-14.88,12.24-19.12,20.77-4.82,9.7-7.51,20.34-9.63,30.91a216.38,216.38,0,0,0-4.16,38.49c-.06,3.22,0,6.43,0,9.65,0,1.93,3,1.93,3,0Z"/></g><g id="Anterior_Deltoid-2" data-name="Anterior Deltoid"><path d="M479.47,367A217.12,217.12,0,0,0,477,328.1c-1.76-11.34-4.16-22.85-8.36-33.57-3.52-8.95-8.5-17.68-16.2-23.67-9.22-7.16-20.84-8.16-32.12-8.5s-23,.58-33.47,5.26c-4.91,2.19-10.08,5.23-12.57,10.22-2.25,4.5-2.16,9.71-.87,14.49,2.73,10.06,10.26,18.66,18.19,25.12a70.51,70.51,0,0,0,28.75,14.06c5.84,1.34,11.76,2.24,17.46,4.14a69.35,69.35,0,0,1,13.9,6.45,70,70,0,0,1,25.9,27.33c.9,1.71,3.49.2,2.59-1.51a73.73,73.73,0,0,0-44.86-36.16c-5.85-1.63-11.89-2.4-17.74-4a65.59,65.59,0,0,1-14.22-5.87,64.6,64.6,0,0,1-22.55-20.51c-5.13-7.85-8.61-19.54-.28-26.54,4.15-3.49,9.65-5.64,14.83-7.06a72.45,72.45,0,0,1,16.52-2.36,139.85,139.85,0,0,1,16.75.43c5.68.47,11.46,1.43,16.6,4,8.41,4.24,14.19,12,18.21,20.27,4.6,9.49,7.12,19.95,9.14,30.25a211.36,211.36,0,0,1,3.93,37.46c.05,3.05,0,6.11-.06,9.17-.05,1.93,2.95,1.93,3,0Z"/></g></g><g id="Lateral_Deltoids" data-name="Lateral Deltoids"><g id="Lateral_Deltoid" data-name="Lateral Deltoid"><path d="M128.6,257.11c-18,7.27-30.82,23.17-37.89,40.84-4.23,10.6-6.47,21.89-7.65,33.2a268.24,268.24,0,0,0-1.13,34.6c.34,12.88,1.79,25.91,6.45,38a1.5,1.5,0,0,0,2.94-.4c.22-4.31,2.37-8.12,4.51-11.76,2.24-3.8,4.61-7.62,5.62-12,1.19-5.1.87-10.45,1.11-15.64s.69-10.42,1.37-15.59a186.31,186.31,0,0,1,6.68-30.61,211.22,211.22,0,0,1,11.56-28.89c4.92-10.29,10-20.72,11.75-32.11.28-1.89-2.61-2.7-2.9-.8-1.53,10.17-5.78,19.56-10.18,28.76a244.77,244.77,0,0,0-12,28.74,187.27,187.27,0,0,0-7.31,30.63c-.79,5.22-1.38,10.47-1.74,15.73s-.17,10.51-.7,15.73-3,9.67-5.65,14.18c-2.5,4.22-4.87,8.59-5.12,13.6l3-.4c-4-10.42-5.63-21.52-6.17-32.63a273.63,273.63,0,0,1,.47-33.64c1.54-20.56,6.5-41.61,19.62-58,6.42-8.05,14.61-14.79,24.21-18.67,1.76-.71,1-3.62-.8-2.89Z"/></g><g id="Lateral_Deltoid-2" data-name="Lateral Deltoid"><path d="M462.74,260.38c17.24,7,29.66,22.8,36.2,39.81a124.36,124.36,0,0,1,7.27,32.72,270.24,270.24,0,0,1,1,33.67c-.34,12.49-1.81,25-6.32,36.76l2.95.4c-.45-9.09-7.82-15.39-10.07-23.86-1.37-5.16-.93-10.69-1.19-16s-.72-10.41-1.41-15.58a190.82,190.82,0,0,0-6.66-30.73,210.85,210.85,0,0,0-11.54-29c-4.94-10.35-10.11-20.76-11.83-32.21-.29-1.9-3.18-1.1-2.89.8,1.51,10,5.67,19.36,10,28.46a250.61,250.61,0,0,1,12.05,28.59,188.87,188.87,0,0,1,7.35,30.4c.8,5.17,1.37,10.38,1.73,15.6s.16,10.52.7,15.73a27.49,27.49,0,0,0,2,8.08,55.78,55.78,0,0,0,3.39,6.45c2.43,4.11,5.15,8.35,5.4,13.26a1.5,1.5,0,0,0,2.94.4c4.13-10.74,5.75-22.22,6.29-33.66a271.26,271.26,0,0,0-.58-34.8c-1.74-21.1-7.1-42.31-20.63-59.06a63.32,63.32,0,0,0-25.3-19.14c-1.79-.72-2.56,2.18-.79,2.9Z"/></g></g><g id="Traps"><g id="Trapezoid"><path d="M244.43,183.26c2,17.56-16.45,28.41-28.69,37a247.5,247.5,0,0,1-22.38,14.25c-7.65,4.24-15.55,8-23.56,11.51-9.05,4-18.24,7.58-27.42,11.19-1.48.59-1.42,3,.4,2.95l67.94-1.4c2.61,0,5.52.22,8.05-.5,2.34-.67,3.84-2.5,5.41-4.23,3.26-3.57,6.45-7.2,9.44-11,5.9-7.49,11.08-15.66,14-24.79,3.7-11.53,3.44-23.82,3.15-35.78-.05-1.93-3.05-1.94-3,0,.25,10.34.53,20.87-1.92,31-2.24,9.2-6.9,17.5-12.52,25.05-2.81,3.78-5.86,7.36-9,10.87a51.41,51.41,0,0,1-4.7,5.08c-1.91,1.61-4.85,1.22-7.18,1.26l-32.85.68-36.83.76.4,2.95c16.75-6.6,33.57-13.23,49.45-21.78a240.62,240.62,0,0,0,23.45-14.65c7.08-4.95,14.56-9.76,20.76-15.81,6.54-6.38,11.67-15.19,10.59-24.63-.22-1.89-3.22-1.91-3,0Z"/></g><g id="Trapezoid-2" data-name="Trapezoid"><path d="M340.39,183.35c-1,8.27,2.93,16.23,8.32,22.27,5.72,6.4,13.13,11.17,20.09,16.09a263.33,263.33,0,0,0,23.33,15c7.83,4.38,15.94,8.26,24.16,11.86,9.35,4.1,18.85,7.85,28.35,11.59l.39-2.95-65.7-1.35c-2.65-.06-5.34,0-8-.19s-3.94-1.88-5.6-3.71c-3.16-3.46-6.25-7-9.17-10.66-5.76-7.27-10.84-15.3-13.63-24.21-3.48-11.17-3.19-23-2.9-34.58,0-1.93-3-1.93-3,0-.26,10.69-.5,21.56,2.08,32,2.32,9.42,7.12,18,12.89,25.71,2.93,3.92,6.08,7.66,9.33,11.31a50.94,50.94,0,0,0,4.86,5.2c1.92,1.63,4.22,1.91,6.65,2,11.28.26,22.56.46,33.85.69l38.32.79c1.81,0,1.89-2.36.4-2.94-16.3-6.42-32.65-12.87-48.13-21.15a229.86,229.86,0,0,1-22.48-13.89c-3.63-2.51-7.22-5.08-10.81-7.65a100.2,100.2,0,0,1-9.82-7.73c-6.54-6.05-11.87-14.28-10.8-23.55.22-1.92-2.79-1.9-3,0Z"/></g></g><g id="Chest"><g id="Pectoralis"><path d="M221.74,265.94l34.87,10.74,17.67,5.45a69.41,69.41,0,0,1,7.88,2.51c2.49,1.1,3.06,3.19,3.38,5.71a631.87,631.87,0,0,1,4.76,72q.1,9,0,18c0,2.9,0,5.81-.21,8.7a14,14,0,0,1-1.77,6.93c-1.29,2-3.43,3.26-5.48,4.37-2.41,1.31-4.85,2.56-7.29,3.81-4.95,2.54-10,5-15.1,7.13-10.06,4.19-20.81,7.38-31.79,7.43-5.25,0-10.63-.77-15.31-3.27a32.87,32.87,0,0,1-10.07-8.82,112.94,112.94,0,0,1-7.67-11.56,144.73,144.73,0,0,0-8.26-12.28,121.45,121.45,0,0,0-21.46-21.88q-3-2.32-6.06-4.49V359l24.63-15.57c7.38-4.67,14.88-9.21,22-14.29,13-9.29,24.89-21.26,28.07-37.48,1.64-8.35.79-17.14-3.59-24.54a1.5,1.5,0,0,0-2.59,1.51c7.69,13,3.36,29.59-5.23,41-9.81,13-24.55,21.34-38.08,29.89l-26.71,16.89a1.52,1.52,0,0,0,0,2.59,119,119,0,0,1,23.52,21.64,117.69,117.69,0,0,1,9.18,12.7c2.53,4,4.91,8.18,7.66,12.08a44.73,44.73,0,0,0,9.57,10.32,30.18,30.18,0,0,0,14.33,5.59c11,1.44,22.44-1.14,32.75-4.85a164.67,164.67,0,0,0,15.82-6.78c5-2.43,10.18-4.83,14.93-7.75a13.9,13.9,0,0,0,5.23-5.15,17.7,17.7,0,0,0,1.74-7.15c.42-6,.31-12,.32-18a664.37,664.37,0,0,0-4-74.48c-.32-3-.55-6-1.07-8.88a8.06,8.06,0,0,0-3.91-5.95c-2.38-1.33-5.25-1.92-7.84-2.71l-9.07-2.8-35.83-11-9.07-2.79c-1.85-.57-2.64,2.32-.8,2.89Z"/></g><g id="Pectoralis-2" data-name="Pectoralis"><path d="M371.64,263.38l-36.3,11.18-17.91,5.52c-2.56.79-5.43,1.36-7.76,2.73a8.08,8.08,0,0,0-3.75,5.86c-1.07,6-1.46,12.17-2,18.22q-.9,9.35-1.53,18.72-1.25,18.5-1.47,37-.11,9.39,0,18.78c.05,2.92,0,5.86.25,8.77a17,17,0,0,0,1.92,7.3c2.58,4.44,8.1,6.51,12.44,8.76,5.06,2.61,10.17,5.15,15.4,7.4,10.43,4.49,21.45,8,32.87,8.36a38.48,38.48,0,0,0,15.95-2.42,31.66,31.66,0,0,0,11.37-8.23c6.61-7.31,10.83-16.42,16.57-24.36a119,119,0,0,1,21.76-22.85q3.14-2.52,6.44-4.81a1.52,1.52,0,0,0,0-2.59l-23.79-15c-7.13-4.51-14.35-8.9-21.27-13.73-12.59-8.78-24.41-20-28-35.45-1.82-7.95-1.21-16.45,3-23.56a1.5,1.5,0,0,0-2.59-1.51c-7.93,13.39-4.28,30.72,4.36,42.84,9.86,13.83,24.91,22.59,39,31.49l27.76,17.55v-2.59a121.43,121.43,0,0,0-32.15,32.89c-2.55,3.86-4.85,7.89-7.37,11.76a52,52,0,0,1-8.73,10.7,26.92,26.92,0,0,1-12.75,6.27c-10.57,2.09-22-.42-32-3.85-10.41-3.56-20.35-8.6-30-13.84-2.05-1.11-4.19-2.36-5.48-4.37a14.25,14.25,0,0,1-1.78-7.13c-.29-5.87-.27-11.77-.28-17.64a668.92,668.92,0,0,1,3.8-72c.32-2.95.64-5.9,1-8.84a10.68,10.68,0,0,1,.85-3.53,4.93,4.93,0,0,1,2.7-2.25c2.62-1.1,5.48-1.76,8.19-2.59l8.59-2.65,34.87-10.74,8.6-2.65c1.84-.57,1.05-3.47-.8-2.89Z"/></g></g><g id="Abs"><g id="Abs_2" data-name="Abs 2"><path d="M282.58,419.23l.05,29.9v7.48c0,.61.24,2-.29,2.47s-2.32.32-3,.35L264.5,460l-16.8.62,1.5,1.5-.15-14.23-.07-7.11c0-2.08-.33-4.45.29-6.46s2.32-3.14,3.85-4.27,3.31-2.43,5-3.6a71.39,71.39,0,0,1,10.6-6.25,30.47,30.47,0,0,1,13.23-3c1.93,0,1.93-3,0-3-8.94-.15-17.07,4-24.29,8.93-1.82,1.23-3.6,2.52-5.37,3.82a20.85,20.85,0,0,0-4.65,4.08,10,10,0,0,0-1.69,6.2c0,2.49,0,5,.07,7.46l.18,17.42a1.52,1.52,0,0,0,1.5,1.5l32.11-1.18c1.93-.07,4.19-.1,5.28-2a5.35,5.35,0,0,0,.55-2.64c0-1.38,0-2.77,0-4.16l0-16.2,0-18.19a1.5,1.5,0,0,0-3,0Z"/></g><g id="Abs_2-2" data-name="Abs 2"><path d="M282.33,478.33l2.5,36.18,1.1-1.44a126.1,126.1,0,0,1-23.57,6.06c-2,.31-3.95.56-5.94.77-1.62.16-3.75.66-5.3,0-1.27-.58-1.66-2.09-1.83-3.35a45.2,45.2,0,0,1-.13-5.46l-.07-12.67c0-4.22-.26-8.51-.06-12.72.09-1.84,1.57-2.75,2.93-3.76a51.76,51.76,0,0,1,4.67-3.1,48.91,48.91,0,0,1,10.06-4.47c4.51-1.42,13.37-2.8,15.32,3.2.6,1.83,3.49,1,2.89-.8-2-6.28-9.45-7.2-15.1-6.28a41.6,41.6,0,0,0-10.88,3.74,50.67,50.67,0,0,0-10.46,6.66,6.19,6.19,0,0,0-2.43,4.81c-.1,2.41,0,4.84,0,7.25l.08,14.42c0,2.37,0,4.75,0,7.12a13.62,13.62,0,0,0,.77,4.95,5.75,5.75,0,0,0,3.54,3.41c1.89.64,4,.28,5.93.09A127.13,127.13,0,0,0,286.73,516a1.53,1.53,0,0,0,1.1-1.45l-2.5-36.18c-.14-1.92-3.14-1.93-3,0Z"/></g><g id="Abs_3" data-name="Abs 3"><path d="M245,534.17,245,575.61c0,2.6-.19,5.38.75,7.86,1.05,2.77,3.33,4.1,6,5,5.35,1.71,11.1,3.19,16.77,2.84a19.32,19.32,0,0,0,14.07-6.95c3.58-4.41,5.28-9.82,6-15.39.79-6.45.43-13.05.39-19.53,0-3.13.12-6.31-.13-9.44-.21-2.68-1-5.31-3.07-7.15-2.24-2-5.23-2.81-8.07-3.42a46.26,46.26,0,0,0-9.95-1,47,47,0,0,0-19.81,4.49c-1.75.81-.23,3.4,1.51,2.59a43.41,43.41,0,0,1,15.89-4c5.19-.29,10.9.12,15.77,2.07a6.77,6.77,0,0,1,4.5,4.89c.59,2.6.33,5.47.34,8.12,0,6,.25,12,0,18-.23,5.33-1.1,10.75-3.85,15.41A16.48,16.48,0,0,1,270.92,588c-5.1,1-10.45-.16-15.37-1.54-2.2-.62-5.32-1.08-6.62-3.18s-1-4.86-1-7.15l.06-41.94a1.5,1.5,0,0,0-3,0Z"/></g><g id="Abs_4" data-name="Abs 4"><path d="M245.06,604c-1.57,18,1.85,36,6.5,53.35,1.19,4.42,2.46,8.82,3.75,13.22,1.22,4.12,2.37,8.28,3.81,12.34,2.57,7.24,6.55,14.41,13.65,18,3.13,1.6,7,2.58,10.48,1.79,4.54-1,3.77-6.16,3.7-9.69l-.59-28.15c-.39-18.81-.57-37.63-1.18-56.44-.12-3.58-.95-7-3.89-9.28-2.52-2-5.71-2.71-8.84-3.08a63.49,63.49,0,0,0-10.32-.2A31.69,31.69,0,0,0,251.18,598a19.69,19.69,0,0,0-4.61,2.79c-1.5,1.21.63,3.32,2.12,2.12,5.43-4.35,13.13-4.24,19.72-4.1,5.59.11,12.94,1,13.66,7.85.44,4.15.25,8.44.34,12.61l.27,13.2.55,26.16.55,26.16c.08,4.19.38,8.43.24,12.62a2.75,2.75,0,0,1-.63,2,4.57,4.57,0,0,1-2.68.5,14.06,14.06,0,0,1-4.84-.93c-6.94-2.57-11-9.32-13.49-15.92-2.82-7.58-4.88-15.53-7-23.32-4.48-16.15-8.12-32.76-7.65-49.6.06-2.08.18-4.14.36-6.21.17-1.92-2.83-1.91-3,0Z"/></g><g id="Abs_2-3" data-name="Abs 2"><path d="M304.55,418.87l-.06,32.4c0,2.41-.31,5.05.09,7.44.36,2.12,2,3.08,4.05,3.26,5.22.47,10.53.4,15.76.59l18,.67a1.51,1.51,0,0,0,1.5-1.5l.16-15.45.08-7.61c0-2.25.12-4.58-.86-6.68a12.54,12.54,0,0,0-4.13-4.44c-1.75-1.31-3.51-2.59-5.3-3.83A68.9,68.9,0,0,0,322.35,417a33.76,33.76,0,0,0-14.18-3.16c-1.93,0-1.93,3,0,3,8.27-.13,15.73,3.79,22.42,8.29,1.71,1.15,3.39,2.35,5.05,3.56a19.39,19.39,0,0,1,4.49,3.82c1.24,1.72,1.05,3.94,1,5.95l-.07,7.11-.17,16.19,1.5-1.5-29.64-1.09c-1.15,0-2.3-.07-3.46-.13-.89,0-1.69,0-1.82-1.05a59.47,59.47,0,0,1,0-7.19l0-14.95,0-16.95a1.5,1.5,0,0,0-3,0Z"/></g><g id="Abs_2-4" data-name="Abs 2"><path d="M304.8,478l-2.51,36.18a1.54,1.54,0,0,0,1.1,1.45,127.32,127.32,0,0,0,26.79,6.52,62.93,62.93,0,0,0,6.58.67,6.69,6.69,0,0,0,5-1.63c2.66-2.62,2.14-7.09,2.16-10.47L344,496l0-7.2c0-2,.36-4.37-.58-6.2s-2.68-2.85-4.17-3.94a49.93,49.93,0,0,0-5.26-3.37,51.42,51.42,0,0,0-11.49-4.73c-6-1.65-15.06-1.3-17.36,5.78-.6,1.84,2.3,2.63,2.89.8,1.64-5,8.78-4.87,12.94-3.88a44.73,44.73,0,0,1,10,3.8,39.7,39.7,0,0,1,9.08,6c1.41,1.33,1,3.44,1,5.22l0,6.21L341,507.46l0,6.21a10.86,10.86,0,0,1-.61,4.39c-.7,1.57-2.2,1.79-3.78,1.72-1.9-.08-3.8-.33-5.68-.57a124.43,124.43,0,0,1-26.69-6.5l1.1,1.44L307.8,478c.13-1.93-2.87-1.92-3,0Z"/></g><g id="Abs_3-2" data-name="Abs 3"><path d="M342.11,533.81l0,37.45c0,2.79.16,5.63-.06,8.41-.21,2.58-1.24,4.35-3.73,5.25A45.68,45.68,0,0,1,323,588a16.76,16.76,0,0,1-13-5.69c-3.27-3.79-4.83-8.81-5.44-13.7-.74-5.89-.44-11.91-.41-17.83,0-3,0-5.93.06-8.9,0-2.46.11-5.2,2-7s4.9-2.47,7.44-3a42.69,42.69,0,0,1,9.16-.85,43.59,43.59,0,0,1,17.86,4.08c1.74.81,3.26-1.78,1.51-2.59a47.16,47.16,0,0,0-17.4-4.42c-5.67-.32-12,.19-17.27,2.47a9.63,9.63,0,0,0-5.34,5c-1.14,2.71-1,5.78-1,8.67,0,6.55-.27,13.14,0,19.69.24,5.87,1.19,11.84,4.18,17a19.55,19.55,0,0,0,12.24,9.47c5.53,1.32,11.34.34,16.74-1.1,2.61-.7,5.69-1.3,7.84-3s2.72-4.22,2.9-6.74c.26-3.54,0-7.16,0-10.72V557.28l0-23.47a1.5,1.5,0,0,0-3,0Z"/></g><g id="Abs_4-2" data-name="Abs 4"><path d="M342.06,603.65c1.47,16.81-1.45,33.52-5.66,49.75-2.08,8.06-4.43,16.06-6.87,24-2.13,6.94-4.84,14.34-10.88,18.84a15.71,15.71,0,0,1-9.23,3.36,5,5,0,0,1-2.51-.39,2.46,2.46,0,0,1-.81-2.14c-.06-2,.07-4.1.11-6.14l.55-26.16,1.09-52.32c.07-3.37-.52-7.82,2-10.51,1.9-2.06,4.86-2.82,7.54-3.18a59.39,59.39,0,0,1,9.43-.29,32,32,0,0,1,10.28,1.66,15.45,15.45,0,0,1,4.36,2.44c1.49,1.2,3.63-.91,2.12-2.12-6-4.81-13.8-5.08-21.15-5-5.76.07-13.54.76-16.32,6.74a15.36,15.36,0,0,0-1.14,6.11c-.06,2.3-.1,4.6-.15,6.89l-.29,14.2-.59,28.16-.59,28.15-.14,7c-.05,2-.34,4.25.15,6.24,1,4,5.67,4,9,3.42,7.59-1.34,13.24-7.58,16.43-14.23a79.19,79.19,0,0,0,4.21-11.57c1.3-4.34,2.59-8.68,3.83-13,4.91-17.28,9.1-35.1,8.68-53.18q-.07-3.35-.38-6.68c-.16-1.91-3.16-1.92-3,0Z"/></g></g><g id="Forearms"><g id="Forearm"><path d="M69.63,510.9a174.68,174.68,0,0,0-36.92,67,170.69,170.69,0,0,0-4.31,18.81c-1.23,7.28-1.95,14.64-3.2,21.92-2.52,14.79-7.06,29.2-11.11,43.62l-14,50a1.54,1.54,0,0,0,1.05,1.85c8.05,2.44,16.19,4.7,24.16,7.37a34.76,34.76,0,0,1,10.2,5.2A41.64,41.64,0,0,1,43,734.35c.64.83,1.87.39,2.36-.3q8.61-12.37,16.42-25.29,3.9-6.45,7.58-13,1.85-3.29,3.63-6.6c.6-1.11,1.19-2.21,1.78-3.33l.87-1.66c.15-.28.3-.56.44-.84.33-.35.19-.49-.42-.41l-.69-.9.61-1.09,1.16.15-.09,0,.69.9,0-.16-.15,1.15a281.38,281.38,0,0,0,14.64-34.73c2-5.88,3.84-11.84,5.46-17.84.84-3.11,2.07-6.11,3.19-9.13L103.8,612a39.76,39.76,0,0,0,2.61-8.91,15.11,15.11,0,0,0-1.34-8.11,46.49,46.49,0,0,0-4.19-6.83,40.47,40.47,0,0,1-4-7.24c-2.17-5.19-3.32-10.74-4.68-16.18-.69-2.8-1.44-5.6-2.39-8.33s-2.2-5.48-3.41-8.17A44.17,44.17,0,0,1,83,538.56a61,61,0,0,1-.7-10.89q-.09-11.29-.19-22.6a1.53,1.53,0,0,0-2.26-1.3,20.33,20.33,0,0,0-8.63,7.51c-1.05,1.63,1.54,3.13,2.59,1.52a17.53,17.53,0,0,1,7.56-6.44l-2.26-1.29c.08,9.21-.11,18.47.29,27.67A38.83,38.83,0,0,0,82,545.48c1.53,3.89,3.49,7.6,4.88,11.55,2.61,7.45,3.68,15.35,6.38,22.77a44.8,44.8,0,0,0,5.17,10.07c2,3,4.46,6.15,5,9.85.64,4.33-1.48,8.72-2.94,12.67L95.74,625.2c-1.52,4.11-2.51,8.41-3.79,12.62s-2.63,8.3-4.09,12.41q-4.39,12.35-10,24.22-1.38,3-2.84,5.89c-.37.73-.92,1.5-.64,2.35a1.65,1.65,0,0,0,2,1.09,2,2,0,0,0,.88-3.36c-1.44-1.19-3.07.06-3.83,1.37-2.2,3.79-4.12,7.77-6.26,11.61s-4.34,7.65-6.59,11.43q-6.75,11.32-14.14,22.26c-1.23,1.83-2.48,3.64-3.73,5.44l2.35-.3A39,39,0,0,0,27,718.89c-8.23-2.88-16.71-5.15-25-7.68L3,713.06l12.41-44.21c4-14.33,8.5-28.62,11.56-43.19,1.51-7.2,2.39-14.49,3.41-21.78a181.66,181.66,0,0,1,3.74-19.47A171.13,171.13,0,0,1,71.75,513c1.27-1.44-.84-3.57-2.12-2.12Z"/></g><g id="Forearm-2" data-name="Forearm"><path d="M525.72,513.05a170.88,170.88,0,0,1,40.63,85.6c1.18,7.25,1.9,14.56,3.18,21.8,2.59,14.62,7.08,28.87,11.09,43.14l13.9,49.5,1.05-1.85c-8.34,2.53-16.83,4.8-25.05,7.68a39,39,0,0,0-18.15,13.34l2.36.3a463.23,463.23,0,0,1-27.64-44.92c-1-1.93-2-3.93-3.09-5.82-.75-1.29-2.62-2.71-4-1.26a2,2,0,0,0,1.09,3.26,1.63,1.63,0,0,0,1.87-.92c.44-1-.24-1.88-.67-2.74q-5.79-11.64-10.44-23.78t-8.18-24.81c-.6-2.15-1.19-4.25-2-6.34l-2.37-6.41c-1.55-4.2-3.32-8.38-4.59-12.67A12.68,12.68,0,0,1,496,594.63c1.88-3.3,4.32-6.24,6-9.64,3.53-7,4.85-14.77,6.86-22.27A75.23,75.23,0,0,1,513,551.26c1.73-3.84,3.53-7.71,4.33-11.88a75.27,75.27,0,0,0,.82-13.42l.12-13.91.06-6.95-2.26,1.29a17.51,17.51,0,0,1,7.55,6.44c1,1.61,3.65.11,2.59-1.52a20.33,20.33,0,0,0-8.63-7.51,1.51,1.51,0,0,0-2.25,1.3l-.17,20.12c-.06,6.53,0,12.89-2.39,19.07-1.09,2.84-2.45,5.56-3.63,8.36a65.51,65.51,0,0,0-2.8,8.05c-1.53,5.43-2.58,11-4.32,16.36a43.17,43.17,0,0,1-3.26,7.71c-1.32,2.37-3,4.53-4.43,6.81a20.49,20.49,0,0,0-3.14,7.18,18.32,18.32,0,0,0,.89,8.86c1.95,6.13,4.44,12.14,6.68,18.18S502.34,638,504.3,644a279.09,279.09,0,0,0,16.05,38.93l-.15-1.15,0,.16.69-.9-.09.05,1.15-.15.62,1.09-.69.9c-.61-.08-.76.06-.43.41l.44.84c.29.55.58,1.11.88,1.66.58,1.11,1.18,2.22,1.77,3.33q1.8,3.32,3.63,6.6,3.69,6.59,7.59,13,7.78,12.91,16.42,25.29c.48.69,1.71,1.13,2.35.3a42.28,42.28,0,0,1,7.51-7.67,34.64,34.64,0,0,1,10.2-5.2c8-2.67,16.11-4.93,24.16-7.37a1.52,1.52,0,0,0,1-1.85L585,668.08c-4.07-14.48-8.6-28.93-11.66-43.66-1.51-7.29-2.36-14.66-3.41-22a178.54,178.54,0,0,0-3.85-19.57,174,174,0,0,0-38.24-71.9c-1.29-1.45-3.4.68-2.12,2.12Z"/></g></g><g id="HEAD"><path class="cls-1" d="M363.07,101.5c0,54.12-27,76-71.5,98-38.5-15-71.5-43.88-71.5-98s32-98,71.5-98S363.07,47.38,363.07,101.5Z"/></g></g></svg>